<?xml version="1.0"?>
<svg xmlns="http://www.w3.org/2000/svg" xmlns:xlink="http://www.w3.org/1999/xlink" version="1.1" id="Capa_1" x="0px" y="0px" viewBox="0 0 461.946 461.946" style="enable-background:new 0 0 461.946 461.946;" xml:space="preserve" width="512px" height="512px" class=""><g><path d="M412.563,90.804c-5.144-5.143-11.98-7.976-19.254-7.976c-3.794,0-7.47,0.771-10.849,2.239l-28.568-28.57  c3.531-14.976-0.531-31.394-12.186-43.051h-0.001C330.58,2.323,314.754-2.297,299.369,1.088c-2.684,0.591-5.006,2.26-6.422,4.615  c-1.415,2.355-1.8,5.189-1.062,7.837c2.51,9.004-0.025,18.691-6.617,25.282l-73.846,73.847c-8.667,8.667-13.44,20.19-13.44,32.447  c0.001,12.257,4.773,23.78,13.44,32.446c11.123,11.125,26.944,15.746,42.335,12.36c2.684-0.591,5.006-2.26,6.422-4.615  c0.801-1.332,1.271-2.818,1.396-4.337l11.156,11.156L49.383,415.476c-5.143,5.144-7.975,11.98-7.975,19.254  c0,7.273,2.832,14.11,7.975,19.254c5.309,5.308,12.281,7.962,19.254,7.962c6.973,0,13.945-2.654,19.254-7.962l324.672-324.672  c5.143-5.144,7.975-11.981,7.975-19.254C420.537,102.784,417.705,95.947,412.563,90.804z M341.705,78.342  c0.968-0.968,1.884-1.97,2.747-3l22.532,22.533l-9.421,9.421L335.157,84.89L341.705,78.342z M311.594,108.453l9.421-9.421  l22.406,22.406l-9.421,9.42L311.594,108.453z M319.858,145.001l-9.421,9.421l-22.405-22.406l9.42-9.421L319.858,145.001z   M253.718,138.045c-4.522,4.521-7.968,9.862-10.236,15.637c-0.189,0.415-0.35,0.841-0.479,1.274  c-1.814,5.05-2.739,10.403-2.711,15.807c-5.498-0.759-10.668-3.282-14.727-7.342c-4.89-4.89-7.583-11.391-7.583-18.305  c0-6.915,2.693-13.415,7.583-18.305l73.845-73.847c8.767-8.765,13.488-20.613,13.426-32.717c5.496,0.759,10.668,3.282,14.727,7.341  c10.094,10.093,10.094,26.517,0,36.61l-37.097,37.098c-0.029,0.028-0.058,0.056-0.086,0.084c-0.028,0.028-0.056,0.057-0.084,0.086  L253.718,138.045z M264.786,155.898c0.897-1.317,1.924-2.561,3.073-3.71l6.029-6.029l22.406,22.406l-9.421,9.421L264.786,155.898z   M398.42,115.169L73.748,439.841c-2.818,2.818-7.404,2.818-10.223,0c-2.818-2.818-2.818-7.404,0-10.223l277.538-277.539  c0.003-0.002,0.005-0.005,0.008-0.007c0.002-0.003,0.005-0.005,0.007-0.008l47.119-47.118c2.817-2.817,7.402-2.819,10.224,0  c1.365,1.365,2.116,3.181,2.116,5.111C400.537,111.989,399.785,113.804,398.42,115.169z" data-original="#000000" class="active-path" data-old_color="#3880ff" fill="#3880ff"/></g> </svg>
